<?xml version="1.0" encoding="UTF-8"?>
<svg width="127px" height="48px" viewBox="0 0 127 48" version="1.1" xmlns="http://www.w3.org/2000/svg" xmlns:xlink="http://www.w3.org/1999/xlink">
    <!-- Generator: Sketch 57.1 (83088) - https://sketch.com -->
    <title>Group</title>
    <desc>Created with Sketch.</desc>
    <defs>
        <linearGradient x1="0%" y1="50.0000282%" x2="100%" y2="50.0000282%" id="linearGradient-1">
            <stop stop-color="#0A0D1B" offset="0.29%"></stop>
            <stop stop-color="#44495F" offset="100%"></stop>
        </linearGradient>
        <linearGradient x1="-2.13863759e-16%" y1="50.0000201%" x2="100.000002%" y2="50.0000201%" id="linearGradient-2">
            <stop stop-color="#00B3A5" offset="0.14%"></stop>
            <stop stop-color="#80D9D2" offset="100%"></stop>
        </linearGradient>
        <linearGradient x1="0%" y1="50.0000052%" x2="100%" y2="50.0000052%" id="linearGradient-3">
            <stop stop-color="#ED9E36" offset="0.14%"></stop>
            <stop stop-color="#F0B15F" offset="100%"></stop>
        </linearGradient>
    </defs>
    <g id="Brochure-Website" stroke="none" stroke-width="1" fill="none" fill-rule="evenodd">
        <g id="10.-Terms-Template" transform="translate(-22.000000, -12.000000)" fill-rule="nonzero">
            <g id="Group" transform="translate(22.000000, 12.000000)">
                <g id="poncho-insurance-logo-words" transform="translate(40.000000, 7.000000)">
                    <g id="type" fill="#151C37">
                        <path d="M0.315386549,23.8090089 C0.188471082,23.6886707 0.120374854,23.5195971 0.128729204,23.3455643 L0.128729204,5.81406879 C0.120370325,5.64003081 0.188466921,5.47095073 0.315386549,5.35060892 C0.437991203,5.2364148 0.600852832,5.1745671 0.768926018,5.17837452 L2.90302832,5.17837452 C3.08194207,5.17204097 3.2555922,5.23910453 3.38316053,5.36380127 C3.5052404,5.48193959 3.57281696,5.64484483 3.56994106,5.81406879 L3.56994106,6.87343185 C4.51231274,5.56687389 5.92614743,4.9135949 7.81144513,4.9135949 C9.60752549,4.9135949 10.9858005,5.47410446 11.9462703,6.59512357 C12.9066373,7.71649936 13.42236,9.22168153 13.4934382,11.1106701 C13.511023,11.3224815 13.5199232,11.6402395 13.5201388,12.0639439 C13.5201388,12.4875669 13.5112386,12.8053299 13.4934382,13.0172331 C13.4401604,14.8709911 12.9288673,16.3672917 11.9595589,17.506135 C10.9900556,18.6448459 9.60735097,19.2142471 7.81144513,19.2143389 C6.03293929,19.2143389 4.6724646,18.5876127 3.73002106,17.3341605 L3.73002106,23.3455796 C3.74283267,23.5177614 3.67949488,23.6869486 3.55652093,23.8090313 C3.43354698,23.9311139 3.26312455,23.9939926 3.08968566,23.9812739 L0.768926018,23.9812739 C0.600847666,23.985078 0.437983647,23.9232184 0.315386549,23.8090089 Z M9.8388685,12.8584204 C9.85631982,12.6820433 9.86522,12.4172127 9.86556903,12.0639287 C9.86556903,11.7109096 9.85666885,11.4460841 9.8388685,11.2694522 C9.71420442,8.93900637 8.70048761,7.77373758 6.79771805,7.77364586 C5.78394991,7.77364586 5.02812265,8.10027006 4.53023628,8.75351847 C4.01884241,9.44530859 3.73893677,10.2789339 3.72994407,11.1369783 C3.71197947,11.3487898 3.70307929,11.6842242 3.70324131,12.1432815 C3.70324131,12.6025936 3.71214372,12.9469096 3.72994407,13.1762293 C3.74250955,13.9975837 4.03384993,14.790706 4.55682903,15.4272764 C5.07249522,16.0453758 5.81946336,16.3543439 6.79773345,16.354181 C8.70054407,16.354181 9.71425575,15.188958 9.8388685,12.8584204 Z" id="type_CompoundPathItem_"></path>
                        <path d="M16.4545487,17.6253554 C15.3162499,16.5660331 14.7027023,15.1006777 14.6139058,13.2292892 L14.5872053,12.0639287 L14.6139058,10.8985834 C14.7026099,9.04477452 15.3250577,7.58381656 16.4812492,6.51570955 C17.6370096,5.44785732 19.2464839,4.91380382 21.3096722,4.91354904 C23.354434,4.91354904 24.9550133,5.44760255 26.1114101,6.51570955 C27.2673039,7.58407134 27.8897517,9.0450293 27.9787535,10.8985834 C27.9962048,11.1106497 28.0050588,11.4990981 28.0053154,12.0639287 C28.0053154,12.6292892 27.9964614,13.0177427 27.9787535,13.2292892 C27.8894437,15.1006777 27.275855,16.5660331 26.1379874,17.6253554 C24.9998119,18.6846777 23.3903735,19.2143236 21.3096722,19.2143236 C19.2109961,19.2143236 17.5926216,18.6846675 16.4545487,17.6253554 Z M23.4836405,15.6655032 C23.9905913,15.083093 24.2618671,14.2268841 24.2974678,13.0968764 C24.3149191,12.920479 24.3237782,12.5761631 24.3240451,12.0639287 C24.3240451,11.5521121 24.315186,11.2078013 24.2974678,11.0309962 C24.2615386,9.90132484 23.9858333,9.04063185 23.4703519,8.4489172 C22.9542853,7.85770191 22.2340588,7.56200764 21.3096722,7.56183439 C20.3667565,7.56183439 19.6375887,7.85752866 19.1221688,8.4489172 C18.6061023,9.04063185 18.3304381,9.90132484 18.2951761,11.0309962 L18.2684756,12.0639287 L18.2951761,13.0968764 C18.3306023,14.2267924 18.6062665,15.0830013 19.1221688,15.6655032 C19.6377119,16.2481885 20.3668796,16.5396535 21.3096722,16.5396535 C22.2519412,16.5396535 22.9765922,16.2482701 23.4836251,15.6655032 L23.4836405,15.6655032 Z" id="type_CompoundPathItem_2"></path>
                        <path d="M29.6856011,18.7640561 C29.5632877,18.6460797 29.4956626,18.4830763 29.4988051,18.3138038 L29.4988051,5.81406879 C29.49056,5.64002252 29.558696,5.4709701 29.6856011,5.35060892 C29.8082182,5.2364346 29.9710714,5.17459012 30.1391405,5.17837452 L32.3532212,5.17837452 C32.5266615,5.1656505 32.6970871,5.22852752 32.8200623,5.35061139 C32.9430375,5.47269526 33.0063736,5.64188562 32.9935566,5.81406879 L32.9935566,6.89975541 C34.0780642,5.57560764 35.5630182,4.91354904 37.4484186,4.91354904 C39.0844189,4.91354904 40.3826283,5.4432051 41.3430467,6.5025172 C42.3033009,7.5618293 42.7835101,9.01838981 42.7836743,10.8721987 L42.7836743,18.3137274 C42.7874119,18.4805656 42.7251263,18.6422114 42.6101825,18.7639796 C42.4889542,18.889982 42.3186593,18.9576274 42.1433389,18.9494217 L39.7424777,18.9494217 C39.5724393,18.9502281 39.4091656,18.8833534 39.2889292,18.7639885 C39.1686929,18.6446237 39.1014512,18.4825334 39.1021423,18.3137274 L39.1021423,11.0309962 C39.1021423,10.0073732 38.8487542,9.20848917 38.3419779,8.63434395 C37.8350168,8.06097325 37.1103196,7.77409427 36.1678864,7.77370701 C35.2610333,7.77370701 34.5319476,8.06500382 33.9806294,8.64759745 C33.4291366,9.2302828 33.1534313,10.0247694 33.1535135,11.0310573 L33.1535135,18.313865 C33.1573473,18.4806741 33.0951477,18.6423262 32.980268,18.7641172 C32.8590468,18.8901206 32.688756,18.9577666 32.5134398,18.9495592 L30.1391405,18.9495592 C29.9686098,18.9527331 29.804388,18.8855643 29.6856011,18.7640561 L29.6856011,18.7640561 Z" id="type_CompoundPathItem_3"></path>
                        <path d="M46.0246938,17.5989707 C44.8596842,16.5220586 44.241666,15.0301503 44.1706391,13.1232459 L44.1440618,12.0638828 L44.1706391,11.0045197 C44.241471,9.09769682 44.8594892,7.60579363 46.0246938,6.52881019 C47.1894365,5.45215287 48.7499804,4.91370191 50.7063255,4.91345732 C52.1109931,4.91345732 53.2981402,5.16059108 54.2677667,5.6548586 C55.2368287,6.14935032 55.9570501,6.75409427 56.428431,7.46909045 C56.899432,8.18392357 57.1529074,8.86806624 57.1888572,9.52151847 C57.2093547,9.69075016 57.1444405,9.85912646 57.0153653,9.97152611 C56.8903934,10.091906 56.7226611,10.1585303 56.5485372,10.1569529 L54.1742379,10.1569529 C54.0221064,10.1702565 53.8703284,10.1278457 53.7475221,10.0377172 C53.6290707,9.91203807 53.5382294,9.76328621 53.4807632,9.60090191 C53.213994,8.93003312 52.8627398,8.44451465 52.4270007,8.1443465 C51.9312554,7.8272874 51.3489431,7.67002693 50.7597265,7.69407898 C49.852894,7.69407898 49.1459561,7.97658089 48.6389129,8.54158471 C48.1322188,9.10669045 47.8610251,9.97178089 47.825332,11.1368561 L47.7987701,12.1167287 L47.825332,12.9906038 C47.9321547,15.2858803 48.9102862,16.4334726 50.7597265,16.4333809 C51.4534681,16.4333809 52.0136506,16.2876943 52.440274,15.996321 C52.8672566,15.7051108 53.2140864,15.2151898 53.4807632,14.526558 C53.530254,14.3674091 53.6171304,14.2222132 53.7342335,14.102935 C53.8590647,14.0057316 54.0160517,13.9584887 54.1742379,13.9705223 L56.5485372,13.9705223 C56.722617,13.969193 56.8902599,14.0357872 57.0153653,14.1559643 C57.1442843,14.2684653 57.2091664,14.4367526 57.1888572,14.6059567 C57.152928,15.2243312 56.9038821,15.8908892 56.4417196,16.6056306 C55.9790542,17.3204637 55.2676867,17.9339159 54.3076173,18.4459873 C53.3473837,18.9580586 52.1469531,19.2140943 50.7063255,19.2140943 C48.749888,19.2142471 47.1893441,18.6758726 46.0246938,17.5989707 Z" id="type_CompoundPathItem_4"></path>
                        <path d="M58.8425809,18.7640561 C58.7201699,18.6461465 58.6525312,18.4830969 58.6558004,18.3138038 L58.6558004,0.78230828 C58.6474284,0.60824836 58.7155787,0.439152248 58.8425809,0.318863694 C58.9650691,0.204640454 59.1278663,0.1427781 59.295874,0.146614013 L61.7235743,0.146614013 C61.897001,0.13385361 62.0674235,0.196728375 62.1903659,0.318829606 C62.3133083,0.440930836 62.3765724,0.61014381 62.363648,0.78230828 L62.363648,6.82037197 C63.430694,5.54923822 64.8623701,4.91363057 66.6586763,4.91354904 C68.2946972,4.91354904 69.6018529,5.44760255 70.5801435,6.51570955 C71.5578388,7.58407134 72.0469071,9.03623439 72.0473485,10.8721987 L72.0473485,18.3137274 C72.0510886,18.4805689 71.9887964,18.6422174 71.8738412,18.7639796 C71.7526165,18.8899779 71.5823282,18.9576229 71.4070131,18.9494217 L68.9795745,18.9494217 C68.8005034,18.9561545 68.6266071,18.8890312 68.4991497,18.7639796 C68.3769091,18.6459745 68.3093768,18.4829663 68.3126156,18.3137274 L68.3126156,11.0309962 C68.3126156,10.0073732 68.0591402,9.20848917 67.5521894,8.63434395 C67.0454952,8.06097325 66.3208391,7.77409427 65.3782211,7.77370701 C64.4711319,7.77370701 63.7419641,8.06500382 63.1907177,8.64759745 C62.6392147,9.2302828 62.3635094,10.0247694 62.3636018,11.0310573 L62.3636018,18.313865 C62.3674356,18.4806741 62.305236,18.6423262 62.1903563,18.7641172 C62.0691339,18.8901189 61.898844,18.9577646 61.7235281,18.9495592 L59.295874,18.9495592 C59.1254062,18.9527812 58.961242,18.8855996 58.8425809,18.7640561 L58.8425809,18.7640561 Z" id="type_CompoundPathItem_5"></path>
                        <path d="M75.4082124,17.6253554 C74.2697699,16.5660331 73.6561812,15.1006777 73.5674464,13.2292892 L73.5408844,12.0639287 L73.5674464,10.8985834 C73.6562839,9.04477452 74.2787317,7.58381656 75.4347897,6.51570955 C76.5906835,5.44785732 78.2002041,4.91380382 80.2633513,4.91354904 C82.3080926,4.91354904 83.9086719,5.44760255 85.0650892,6.51570955 C86.220983,7.58407134 86.8434257,9.0450293 86.9324172,10.8985834 C86.9498685,11.1106497 86.9587276,11.4990981 86.9589945,12.0639287 C86.9589945,12.6292892 86.9501354,13.0177427 86.9324172,13.2292892 C86.8431074,15.1006777 86.2295188,16.5660331 85.0916512,17.6253554 C83.9534961,18.6846777 82.3440628,19.2143236 80.2633513,19.2143236 C78.1646547,19.2143236 76.546275,18.6846675 75.4082124,17.6253554 Z M82.4373196,15.6655032 C82.9442602,15.083093 83.2155359,14.2268841 83.2511469,13.0968764 C83.2685982,12.920479 83.2774573,12.5761631 83.2777242,12.0639287 C83.2777242,11.5521121 83.2688651,11.2078013 83.2511469,11.0309962 C83.2152177,9.90132484 82.9395124,9.04063185 82.424031,8.4489172 C81.9079644,7.85770191 81.1877379,7.56200764 80.2633513,7.56183439 C79.320569,7.56183439 78.5914012,7.85752866 78.075848,8.4489172 C77.5597814,9.04063185 77.2841531,9.90132484 77.248963,11.0309962 L77.2221239,12.0639287 L77.248963,13.0968764 C77.2843789,14.2267924 77.5600073,15.0830013 78.075848,15.6655032 C78.5914012,16.2481885 79.320569,16.5396535 80.2633513,16.5396535 C81.2055896,16.5396535 81.9302354,16.2482701 82.4372888,15.6655032 L82.4373196,15.6655032 Z" id="type_CompoundPathItem_6"></path>
                    </g>
                    <path d="M15.387,34 C15.3003329,34 15.2310003,33.9718336 15.179,33.9155 C15.1269997,33.8591664 15.101,33.7876671 15.101,33.701 L15.101,25.199 C15.101,25.1123329 15.1269997,25.0408336 15.179,24.9845 C15.2310003,24.9281664 15.3003329,24.9 15.387,24.9 L16.037,24.9 C16.1323338,24.9 16.2059997,24.9259997 16.258,24.978 C16.3100003,25.0300003 16.336,25.1036662 16.336,25.199 L16.336,33.701 C16.336,33.7876671 16.3078336,33.8591664 16.2515,33.9155 C16.1951664,33.9718336 16.1236671,34 16.037,34 L15.387,34 Z M18.754,34 C18.6673329,34 18.5958336,33.9718336 18.5395,33.9155 C18.4831664,33.8591664 18.455,33.7876671 18.455,33.701 L18.455,27.539 C18.455,27.4523329 18.4831664,27.3808336 18.5395,27.3245 C18.5958336,27.2681664 18.6673329,27.24 18.754,27.24 L19.313,27.24 C19.4083338,27.24 19.4819997,27.2659997 19.534,27.318 C19.5860003,27.3700003 19.612,27.4436662 19.612,27.539 L19.612,28.111 C19.8720013,27.7903317 20.173165,27.5433342 20.5155,27.37 C20.857835,27.1966658 21.2846641,27.11 21.796,27.11 C22.6280042,27.11 23.2736644,27.3764973 23.733,27.9095 C24.1923356,28.4425027 24.422,29.1466623 24.422,30.022 L24.422,33.701 C24.422,33.7876671 24.3938336,33.8591664 24.3375,33.9155 C24.2811664,33.9718336 24.2096671,34 24.123,34 L23.525,34 C23.4383329,34 23.3668336,33.9718336 23.3105,33.9155 C23.2541664,33.8591664 23.226,33.7876671 23.226,33.701 L23.226,30.1 C23.226,29.4759969 23.0743349,28.9906684 22.771,28.644 C22.4676652,28.2973316 22.0343362,28.124 21.471,28.124 C20.9163306,28.124 20.474335,28.2994982 20.145,28.6505 C19.815665,29.0015018 19.651,29.4846636 19.651,30.1 L19.651,33.701 C19.651,33.7876671 19.6228336,33.8591664 19.5665,33.9155 C19.5101664,33.9718336 19.4386671,34 19.352,34 L18.754,34 Z M28.621,34.13 C28.022997,34.13 27.5181687,34.032501 27.1065,33.8375 C26.6948313,33.642499 26.3893343,33.4193346 26.19,33.168 C25.9906657,32.9166654 25.891,32.7086675 25.891,32.544 C25.891,32.4573329 25.921333,32.3901669 25.982,32.3425 C26.042667,32.2948331 26.1076663,32.271 26.177,32.271 L26.723,32.271 C26.7750003,32.271 26.8161665,32.2796666 26.8465,32.297 C26.8768335,32.3143334 26.9179997,32.353333 26.97,32.414 C27.1693343,32.6566679 27.3924988,32.8473326 27.6395,32.986 C27.8865012,33.1246674 28.2179979,33.194 28.634,33.194 C29.1020023,33.194 29.4768319,33.1073342 29.7585,32.934 C30.0401681,32.7606658 30.181,32.509335 30.181,32.18 C30.181,31.9633323 30.1203339,31.7900007 29.999,31.66 C29.8776661,31.5299994 29.6761681,31.4130005 29.3945,31.309 C29.1128319,31.2049995 28.6946694,31.0923339 28.14,30.971 C27.3859962,30.8063325 26.8530016,30.5680016 26.541,30.256 C26.2289984,29.9439984 26.073,29.5410025 26.073,29.047 C26.073,28.7263317 26.1683324,28.4165015 26.359,28.1175 C26.5496676,27.8184985 26.8334981,27.5758343 27.2105,27.3895 C27.5875019,27.2031657 28.0359974,27.11 28.556,27.11 C29.1020027,27.11 29.5678314,27.2009991 29.9535,27.383 C30.3391686,27.5650009 30.629499,27.7773321 30.8245,28.02 C31.019501,28.2626679 31.117,28.4663325 31.117,28.631 C31.117,28.7090004 31.0888336,28.7739997 31.0325,28.826 C30.9761664,28.8780003 30.9090004,28.904 30.831,28.904 L30.337,28.904 C30.2156661,28.904 30.1290003,28.8563338 30.077,28.761 C29.9296659,28.5963325 29.8061672,28.4685005 29.7065,28.3775 C29.6068328,28.2864995 29.4616676,28.2085003 29.271,28.1435 C29.0803324,28.0784997 28.8420014,28.046 28.556,28.046 C28.1313312,28.046 27.8063345,28.1348324 27.581,28.3125 C27.3556655,28.4901676 27.243,28.7263319 27.243,29.021 C27.243,29.2030009 27.2906662,29.3568327 27.386,29.4825 C27.4813338,29.6081673 27.663332,29.7251661 27.932,29.8335 C28.200668,29.9418339 28.5993307,30.0523328 29.128,30.165 C29.9513375,30.3383342 30.534165,30.5853317 30.8765,30.906 C31.218835,31.2266683 31.39,31.6383308 31.39,32.141 C31.39,32.5136685 31.2838344,32.8516652 31.0715,33.155 C30.8591656,33.4583349 30.5428354,33.6966658 30.1225,33.87 C29.7021646,34.0433342 29.2016696,34.13 28.621,34.13 Z M35.433,34.13 C34.6096626,34.13 33.9726689,33.8635027 33.522,33.3305 C33.0713311,32.7974973 32.846,32.0890044 32.846,31.205 L32.846,27.539 C32.846,27.4523329 32.8741664,27.3808336 32.9305,27.3245 C32.9868336,27.2681664 33.0583329,27.24 33.145,27.24 L33.743,27.24 C33.8296671,27.24 33.9011664,27.2681664 33.9575,27.3245 C34.0138336,27.3808336 34.042,27.4523329 34.042,27.539 L34.042,31.14 C34.042,32.4573399 34.6139943,33.116 35.758,33.116 C36.3126694,33.116 36.7524984,32.9405018 37.0775,32.5895 C37.4025016,32.2384982 37.565,31.7553364 37.565,31.14 L37.565,27.539 C37.565,27.4523329 37.5931664,27.3808336 37.6495,27.3245 C37.7058336,27.2681664 37.7773329,27.24 37.864,27.24 L38.462,27.24 C38.5486671,27.24 38.6201664,27.2681664 38.6765,27.3245 C38.7328336,27.3808336 38.761,27.4523329 38.761,27.539 L38.761,33.701 C38.761,33.7876671 38.7328336,33.8591664 38.6765,33.9155 C38.6201664,33.9718336 38.5486671,34 38.462,34 L37.903,34 C37.8163329,34 37.7448336,33.9718336 37.6885,33.9155 C37.6321664,33.8591664 37.604,33.7876671 37.604,33.701 L37.604,33.116 C37.3526654,33.4540017 37.0580017,33.7074992 36.72,33.8765 C36.3819983,34.0455008 35.9530026,34.13 35.433,34.13 Z M41.01,34 C40.9233329,34 40.8518336,33.9718336 40.7955,33.9155 C40.7391664,33.8591664 40.711,33.7876671 40.711,33.701 L40.711,27.552 C40.711,27.4653329 40.7391664,27.391667 40.7955,27.331 C40.8518336,27.270333 40.9233329,27.24 41.01,27.24 L41.556,27.24 C41.6513338,27.24 41.7271664,27.2681664 41.7835,27.3245 C41.8398336,27.3808336 41.868,27.4566662 41.868,27.552 L41.868,28.124 C42.2233351,27.5346637 42.8256624,27.24 43.675,27.24 L44.182,27.24 C44.2773338,27.24 44.3509997,27.2659997 44.403,27.318 C44.4550003,27.3700003 44.481,27.4436662 44.481,27.539 L44.481,28.02 C44.481,28.1066671 44.4550003,28.1781664 44.403,28.2345 C44.3509997,28.2908336 44.2773338,28.319 44.182,28.319 L43.441,28.319 C42.964331,28.319 42.5895014,28.4576653 42.3165,28.735 C42.0434986,29.0123347 41.907,29.389331 41.907,29.866 L41.907,33.701 C41.907,33.7876671 41.876667,33.8591664 41.816,33.9155 C41.755333,33.9718336 41.6816671,34 41.595,34 L41.01,34 Z M47.471,34.13 C47.0463312,34.13 46.6541685,34.0433342 46.2945,33.87 C45.9348315,33.6966658 45.6488344,33.4605015 45.4365,33.1615 C45.2241656,32.8624985 45.118,32.5310018 45.118,32.167 C45.118,31.5949971 45.3519977,31.1270018 45.82,30.763 C46.2880023,30.3989982 46.924996,30.1563339 47.731,30.035 L49.681,29.762 L49.681,29.385 C49.681,28.4923289 49.1653385,28.046 48.134,28.046 C47.7353313,28.046 47.4146679,28.1261659 47.172,28.2865 C46.9293321,28.4468341 46.7516672,28.6353323 46.639,28.852 C46.6043332,28.9386671 46.5675002,28.9971665 46.5285,29.0275 C46.4894998,29.0578335 46.4353337,29.073 46.366,29.073 L45.859,29.073 C45.7809996,29.073 45.7138336,29.0448336 45.6575,28.9885 C45.6011664,28.9321664 45.573,28.8650004 45.573,28.787 C45.573,28.5876657 45.6661657,28.3558347 45.8525,28.0915 C46.0388343,27.8271653 46.3269981,27.597501 46.717,27.4025 C47.107002,27.207499 47.5836639,27.11 48.147,27.11 C49.1176715,27.11 49.8131646,27.3353311 50.2335,27.786 C50.6538354,28.2366689 50.864,28.7999966 50.864,29.476 L50.864,33.701 C50.864,33.7876671 50.8358336,33.8591664 50.7795,33.9155 C50.7231664,33.9718336 50.6516671,34 50.565,34 L49.993,34 C49.9063329,34 49.8370003,33.9718336 49.785,33.9155 C49.7329997,33.8591664 49.707,33.7876671 49.707,33.701 L49.707,33.129 C49.5163324,33.4150014 49.2390018,33.6533324 48.875,33.844 C48.5109982,34.0346676 48.0430029,34.13 47.471,34.13 Z M47.731,33.181 C48.3030029,33.181 48.7709982,32.9946685 49.135,32.622 C49.4990018,32.2493315 49.681,31.7076702 49.681,30.997 L49.681,30.633 L48.16,30.854 C47.5359969,30.9406671 47.0636683,31.087999 46.743,31.296 C46.4223317,31.504001 46.262,31.7639984 46.262,32.076 C46.262,32.4313351 46.4071652,32.7043324 46.6975,32.895 C46.9878348,33.0856676 47.3323313,33.181 47.731,33.181 Z M53.048,34 C52.9613329,34 52.8898336,33.9718336 52.8335,33.9155 C52.7771664,33.8591664 52.749,33.7876671 52.749,33.701 L52.749,27.539 C52.749,27.4523329 52.7771664,27.3808336 52.8335,27.3245 C52.8898336,27.2681664 52.9613329,27.24 53.048,27.24 L53.607,27.24 C53.7023338,27.24 53.7759997,27.2659997 53.828,27.318 C53.8800003,27.3700003 53.906,27.4436662 53.906,27.539 L53.906,28.111 C54.1660013,27.7903317 54.467165,27.5433342 54.8095,27.37 C55.151835,27.1966658 55.5786641,27.11 56.09,27.11 C56.9220042,27.11 57.5676644,27.3764973 58.027,27.9095 C58.4863356,28.4425027 58.716,29.1466623 58.716,30.022 L58.716,33.701 C58.716,33.7876671 58.6878336,33.8591664 58.6315,33.9155 C58.5751664,33.9718336 58.5036671,34 58.417,34 L57.819,34 C57.7323329,34 57.6608336,33.9718336 57.6045,33.9155 C57.5481664,33.8591664 57.52,33.7876671 57.52,33.701 L57.52,30.1 C57.52,29.4759969 57.3683349,28.9906684 57.065,28.644 C56.7616652,28.2973316 56.3283362,28.124 55.765,28.124 C55.2103306,28.124 54.768335,28.2994982 54.439,28.6505 C54.109665,29.0015018 53.945,29.4846636 53.945,30.1 L53.945,33.701 C53.945,33.7876671 53.9168336,33.8591664 53.8605,33.9155 C53.8041664,33.9718336 53.7326671,34 53.646,34 L53.048,34 Z M63.305,34.13 C62.377662,34.13 61.6540026,33.867836 61.134,33.3435 C60.6139974,32.819164 60.3410001,32.0846714 60.315,31.14 L60.302,30.62 L60.315,30.1 C60.3410001,29.1553286 60.6139974,28.420836 61.134,27.8965 C61.6540026,27.372164 62.377662,27.11 63.305,27.11 C63.9290031,27.11 64.4554979,27.2204989 64.8845,27.4415 C65.3135021,27.6625011 65.6341656,27.937665 65.8465,28.267 C66.0588344,28.596335 66.1736666,28.925665 66.191,29.255 C66.1996667,29.3330004 66.1715003,29.402333 66.1065,29.463 C66.0414997,29.523667 65.9700004,29.554 65.892,29.554 L65.32,29.554 C65.2333329,29.554 65.1683336,29.5345002 65.125,29.4955 C65.0816665,29.4564998 65.0383336,29.3850005 64.995,29.281 C64.8389992,28.8563312 64.6245014,28.5551676 64.3515,28.3775 C64.0784986,28.1998324 63.7340021,28.111 63.318,28.111 C62.7719973,28.111 62.3386683,28.2799983 62.018,28.618 C61.6973317,28.9560017 61.5240001,29.4716632 61.498,30.165 L61.485,30.62 L61.498,31.075 C61.5240001,31.7683368 61.6973317,32.2839983 62.018,32.622 C62.3386683,32.9600017 62.7719973,33.129 63.318,33.129 C63.7426688,33.129 64.089332,33.0401676 64.358,32.8625 C64.626668,32.6848324 64.8389992,32.3836688 64.995,31.959 C65.0383336,31.8549995 65.0816665,31.7835002 65.125,31.7445 C65.1683336,31.7054998 65.2333329,31.686 65.32,31.686 L65.892,31.686 C65.9700004,31.686 66.0414997,31.716333 66.1065,31.777 C66.1715003,31.837667 66.1996667,31.9069996 66.191,31.985 C66.1736666,32.3056683 66.0588344,32.630665 65.8465,32.96 C65.6341656,33.289335 65.3135021,33.5666655 64.8845,33.792 C64.4554979,34.0173345 63.9290031,34.13 63.305,34.13 Z M70.429,34.13 C69.5449956,34.13 68.8386693,33.8548361 68.31,33.3045 C67.7813307,32.7541639 67.4910003,32.0023381 67.439,31.049 L67.426,30.607 L67.439,30.178 C67.4910003,29.2419953 67.7813307,28.4966694 68.31,27.942 C68.8386693,27.3873306 69.5449956,27.11 70.429,27.11 C71.3823381,27.11 72.121164,27.4133303 72.6455,28.02 C73.169836,28.6266697 73.432,29.4499948 73.432,30.49 L73.432,30.724 C73.432,30.8106671 73.4038336,30.8821664 73.3475,30.9385 C73.2911664,30.9948336 73.2196671,31.023 73.133,31.023 L68.622,31.023 L68.622,31.14 C68.6480001,31.7033362 68.8213317,32.1843313 69.142,32.583 C69.4626683,32.9816687 69.8873307,33.181 70.416,33.181 C70.8233354,33.181 71.1548321,33.1008341 71.4105,32.9405 C71.6661679,32.7801659 71.8589994,32.6133342 71.989,32.44 C72.0670004,32.3359995 72.1276665,32.2731668 72.171,32.2515 C72.2143336,32.2298332 72.2879995,32.219 72.392,32.219 L72.964,32.219 C73.0420004,32.219 73.1091664,32.2406665 73.1655,32.284 C73.2218336,32.3273336 73.25,32.3836663 73.25,32.453 C73.25,32.6436676 73.1330012,32.873332 72.899,33.142 C72.6649988,33.410668 72.3335021,33.642499 71.9045,33.8375 C71.4754979,34.032501 70.9836694,34.13 70.429,34.13 Z M72.249,30.139 L72.249,30.1 C72.249,29.4933303 72.084335,28.9993352 71.755,28.618 C71.425665,28.2366648 70.9836694,28.046 70.429,28.046 C69.8656639,28.046 69.4236683,28.2366648 69.103,28.618 C68.7823317,28.9993352 68.622,29.4933303 68.622,30.1 L68.622,30.139 L72.249,30.139 Z" id="Insurance" fill="#6D6F78"></path>
                </g>
                <g id="poncho-insurance-symbol">
                    <g id="Group-3" transform="translate(0.000000, 0.000005)">
                        <path d="M13.9494508,20.9531644 C13.9390475,19.6575798 13.9494508,17.8104875 11.7169322,16.9881644 C8.36237288,15.6339491 0.000930508474,12.6460567 0.000930508474,6.46367213 C0.000930508474,6.47368752 -6.55475674e-13,6.48367213 -6.55475674e-13,6.49368752 L-6.55475674e-13,33.7536875 C0.606371186,27.9466106 8.93995932,28.0295644 13.9494508,26.3395491 L13.9494508,20.9531644 Z" id="logoMark_PathItem_" fill="url(#linearGradient-1)"></path>
                        <path d="M26.9301814,10.6647337 C26.3486441,2.96021059 20.0143525,-2.29020479 9.6255,0.9987029 L9.62530169,0.99773367 C6.85192881,1.85344136 3.41882542,2.66088752 1.40514407,3.82579521 C0.534027422,4.42714069 0.00973730572,5.42028252 0.00137288136,6.4849029 C0.0206237288,12.6527952 8.36617119,15.6355029 11.7169322,16.9881644 C13.9494508,17.8104721 13.9390627,19.6575798 13.9494508,20.9531491 L13.9494508,26.3395491 C19.5957915,24.6936721 27.648,21.8250875 26.9301814,10.6647337 Z" id="logoMark_PathItem_2" fill="url(#linearGradient-2)"></path>
                        <path d="M13.9494508,26.3395491 C9.18318814,27.9475029 1.40831695,27.9508721 0.142215254,32.9489491 C0.0719353214,33.2576137 0.0244004287,33.5711005 -6.55475674e-13,33.8868414 L-6.55475674e-13,37.7855952 C-6.55475674e-13,42.9105183 6.11321186,46.0440567 10.5232119,47.7244875 C12.7557305,48.5064414 13.9494508,47.4259337 13.9494508,44.9123952 L13.9494508,26.3395491 Z" id="logoMark_PathItem_3" fill="url(#linearGradient-3)"></path>
                    </g>
                </g>
            </g>
        </g>
    </g>
</svg>